<svg width="107" height="26" viewBox="0 0 107 26" fill="none" xmlns="http://www.w3.org/2000/svg">
<path d="M15.6731 4.42681H0.673099V6.63481C1.5851 6.10681 2.6891 5.53081 4.7051 5.53081H6.0971V17.4348C6.0971 18.6828 5.9051 19.6908 5.4251 21.2268H10.9211C10.4171 19.6428 10.2251 18.6348 10.2251 17.4348V5.53081H11.6411C13.6571 5.53081 14.7611 6.10681 15.6731 6.63481V4.42681ZM30.1848 8.86681C30.7128 10.0428 30.3048 11.3628 29.9208 12.5388L28.5048 16.6668L26.7288 11.9388C26.3448 10.9308 26.1768 9.77881 26.6568 8.86681H21.4488L23.0088 12.5628L21.6168 16.6668L19.8408 11.9388C19.4568 10.8828 19.2648 9.77881 19.7448 8.86681H14.5608L19.7208 21.2268H20.7528L23.6088 14.0028L26.6328 21.2268H27.6408L32.5128 8.86681H30.1848ZM45.1922 14.4828C45.1922 11.3148 43.2962 8.53081 39.3602 8.53081C35.4002 8.53081 32.9522 11.3388 32.9522 15.0348C32.9522 18.7068 35.4242 21.5388 39.7202 21.5388C42.4082 21.5388 44.3042 20.4828 45.1442 19.0908L42.9602 17.3148C42.1682 19.2108 41.3522 20.4108 39.8882 20.4108C37.9682 20.4108 37.0562 18.3468 37.0562 15.0348H45.1922V14.4828ZM37.0802 13.9308C37.2242 11.0268 37.9682 9.63481 39.3602 9.63481C40.8962 9.63481 41.6162 11.3868 41.6162 13.9308H37.0802ZM53.0838 8.53081C50.7078 8.53081 48.3318 9.44281 47.3478 11.8428L50.2038 12.7308C50.6358 10.6668 51.2598 9.63481 52.6758 9.63481C54.0438 9.63481 54.8598 10.4988 54.8598 12.3228V13.7868L52.6038 14.1948C49.5798 14.7468 47.0598 15.8268 47.0598 18.2988C47.0598 20.3388 48.8358 21.5388 50.9478 21.5388C53.0358 21.5388 54.5478 20.3628 55.2918 18.3948L56.9238 21.2268H58.8438V13.4028C58.8438 9.87481 55.9638 8.53081 53.0838 8.53081ZM52.4118 20.0988C51.5478 20.0988 50.8518 19.3788 50.8518 18.1788C50.8518 16.6668 51.9798 15.3708 53.6358 14.8908L54.8598 14.5308V15.1788C54.8598 18.4668 53.7558 20.0988 52.4118 20.0988ZM65.7125 17.6508V3.46681H61.0325C61.4405 4.66681 61.7285 5.69881 61.7285 7.04281V17.6508C61.7285 18.7548 61.5605 19.7148 61.0325 21.2268H66.4085C66.0005 20.0268 65.7125 18.9948 65.7125 17.6508ZM69.1445 13.3548L73.4405 8.84281H70.8965C70.9925 9.37081 70.9445 10.0668 70.0565 10.9788L66.0245 15.0828L69.0245 18.8508C69.8165 19.8828 69.7685 20.5788 69.5525 21.2268H75.1205L69.1445 13.3548ZM81.9806 5.91481C83.1086 5.91481 83.9726 6.15481 84.7886 6.46681L85.6046 3.82681C84.8846 3.46681 83.7566 3.15481 82.4606 3.15481C79.1006 3.15481 77.3966 5.41081 77.3966 8.19481V8.84281H75.5246V9.94681H77.3966V17.6508C77.3966 18.7548 77.2046 19.7148 76.7006 21.2268H82.0766C81.6686 20.0268 81.3806 18.9948 81.3806 17.6508V9.94681H84.2606V8.84281H80.6366C79.1246 8.84281 78.7886 8.14681 78.7886 7.61881C78.7886 6.53881 80.3246 5.91481 81.9806 5.91481ZM93.87 8.84281C94.254 10.0428 94.566 11.0748 94.566 12.4188V16.3788C94.566 17.9868 93.87 20.0988 92.214 20.0988C91.134 20.0988 90.294 19.1628 90.294 17.2428V8.84281H85.614C85.998 10.0428 86.31 11.0748 86.31 12.4188V16.9788C86.31 20.0028 88.134 21.5388 90.606 21.5388C93.006 21.5388 94.398 20.1228 94.926 18.2748L96.654 21.2268H98.55V8.84281H93.87ZM101.854 7.04281V17.6508C101.854 18.7548 101.686 19.7148 101.158 21.2268H106.534C106.126 20.0268 105.838 18.9948 105.838 17.6508V3.46681H101.158C101.566 4.66681 101.854 5.69881 101.854 7.04281Z" fill="white"/>
</svg>
