<svg width="163" height="38" viewBox="0 0 163 38" fill="none" xmlns="http://www.w3.org/2000/svg">
<path fill-rule="evenodd" clip-rule="evenodd" d="M47.6 5.58691V37.9222L26.6 21.7546L5.59998 5.58691L47.6 5.58691Z" fill="#46BA71"/>
<path fill-rule="evenodd" clip-rule="evenodd" d="M0 33.1318L0 0.796501L21 16.9642L42 33.1318L0 33.1318Z" fill="#2E4FD7"/>
<path d="M71.6721 8.74492H56.6721V10.9529C57.5841 10.4249 58.6881 9.84892 60.7041 9.84892H62.0961V21.7529C62.0961 23.0009 61.9041 24.0089 61.4241 25.5449H66.9201C66.4161 23.9609 66.2241 22.9529 66.2241 21.7529V9.84892H67.6401C69.6561 9.84892 70.7601 10.4249 71.6721 10.9529V8.74492ZM86.1838 13.1849C86.7118 14.3609 86.3038 15.6809 85.9198 16.8569L84.5038 20.9849L82.7278 16.2569C82.3438 15.2489 82.1758 14.0969 82.6558 13.1849H77.4478L79.0078 16.8809L77.6158 20.9849L75.8398 16.2569C75.4558 15.2009 75.2638 14.0969 75.7438 13.1849H70.5598L75.7198 25.5449H76.7518L79.6078 18.3209L82.6318 25.5449H83.6398L88.5118 13.1849H86.1838ZM101.191 18.8009C101.191 15.6329 99.2951 12.8489 95.3591 12.8489C91.3991 12.8489 88.9511 15.6569 88.9511 19.3529C88.9511 23.0249 91.4231 25.8569 95.7191 25.8569C98.4071 25.8569 100.303 24.8009 101.143 23.4089L98.9591 21.6329C98.1671 23.5289 97.3511 24.7289 95.8871 24.7289C93.9671 24.7289 93.0551 22.6649 93.0551 19.3529H101.191V18.8009ZM93.0791 18.2489C93.2231 15.3449 93.9671 13.9529 95.3591 13.9529C96.8951 13.9529 97.6151 15.7049 97.6151 18.2489H93.0791ZM109.083 12.8489C106.707 12.8489 104.331 13.7609 103.347 16.1609L106.203 17.0489C106.635 14.9849 107.259 13.9529 108.675 13.9529C110.043 13.9529 110.859 14.8169 110.859 16.6409V18.1049L108.603 18.5129C105.579 19.0649 103.059 20.1449 103.059 22.6169C103.059 24.6569 104.835 25.8569 106.947 25.8569C109.035 25.8569 110.547 24.6809 111.291 22.7129L112.923 25.5449H114.843V17.7209C114.843 14.1929 111.963 12.8489 109.083 12.8489ZM108.411 24.4169C107.547 24.4169 106.851 23.6969 106.851 22.4969C106.851 20.9849 107.979 19.6889 109.635 19.2089L110.859 18.8489V19.4969C110.859 22.7849 109.755 24.4169 108.411 24.4169ZM121.711 21.9689V7.78492H117.031C117.439 8.98492 117.727 10.0169 117.727 11.3609V21.9689C117.727 23.0729 117.559 24.0329 117.031 25.5449H122.407C121.999 24.3449 121.711 23.3129 121.711 21.9689ZM125.143 17.6729L129.439 13.1609H126.895C126.991 13.6889 126.943 14.3849 126.055 15.2969L122.023 19.4009L125.023 23.1689C125.815 24.2009 125.767 24.8969 125.551 25.5449H131.119L125.143 17.6729ZM137.98 10.2329C139.108 10.2329 139.972 10.4729 140.788 10.7849L141.604 8.14492C140.884 7.78492 139.756 7.47292 138.46 7.47292C135.1 7.47292 133.396 9.72892 133.396 12.5129V13.1609H131.524V14.2649H133.396V21.9689C133.396 23.0729 133.204 24.0329 132.7 25.5449H138.076C137.668 24.3449 137.38 23.3129 137.38 21.9689V14.2649H140.26V13.1609H136.636C135.124 13.1609 134.788 12.4649 134.788 11.9369C134.788 10.8569 136.324 10.2329 137.98 10.2329ZM149.869 13.1609C150.253 14.3609 150.565 15.3929 150.565 16.7369V20.6969C150.565 22.3049 149.869 24.4169 148.213 24.4169C147.133 24.4169 146.293 23.4809 146.293 21.5609V13.1609H141.613C141.997 14.3609 142.309 15.3929 142.309 16.7369V21.2969C142.309 24.3209 144.133 25.8569 146.605 25.8569C149.005 25.8569 150.397 24.4409 150.925 22.5929L152.653 25.5449H154.549V13.1609H149.869ZM157.852 11.3609V21.9689C157.852 23.0729 157.684 24.0329 157.156 25.5449H162.532C162.124 24.3449 161.836 23.3129 161.836 21.9689V7.78492H157.156C157.564 8.98492 157.852 10.0169 157.852 11.3609Z" fill="#1A1A1A"/>
</svg>
